# MagicaVoxel @ Ephtracy

# group
g HalfWall-1

# material
mtllib HalfWall-1.mtl
usemtl palette

# normals
vn -1 0 0
vn 1 0 0
vn 0 0 1
vn 0 0 -1
vn 0 -1 0
vn 0 1 0

# texcoords
vt 0.0449219 0.5
vt 0.748047 0.5
vt 0.900391 0.5

# verts
v -6 0 1
v -6 0 -1
v -6 10 1
v -6 10 -1
v 6 0 1
v 6 0 -1
v 6 6 1
v 6 6 -1
v 6 8 1
v 6 8 -1
v 6 10 1
v 6 10 -1
v -6 0 1
v -6 10 1
v -5 7 1
v -5 9 1
v -4 0 1
v -4 7 1
v -4 9 1
v -4 10 1
v -3 6 1
v -3 8 1
v -2 0 1
v -2 6 1
v -2 8 1
v -2 10 1
v -1 7 1
v -1 9 1
v 0 0 1
v 0 7 1
v 0 9 1
v 0 10 1
v 1 6 1
v 1 8 1
v 2 0 1
v 2 6 1
v 2 8 1
v 2 10 1
v 3 7 1
v 3 9 1
v 4 0 1
v 4 7 1
v 4 9 1
v 4 10 1
v 5 6 1
v 5 8 1
v 6 0 1
v 6 6 1
v 6 8 1
v 6 10 1
v -6 0 -1
v -6 10 -1
v -5 7 -1
v -5 9 -1
v -4 0 -1
v -4 7 -1
v -4 9 -1
v -4 10 -1
v -3 6 -1
v -3 8 -1
v -2 0 -1
v -2 6 -1
v -2 8 -1
v -2 10 -1
v -1 7 -1
v -1 9 -1
v 0 0 -1
v 0 7 -1
v 0 9 -1
v 0 10 -1
v 1 6 -1
v 1 8 -1
v 2 0 -1
v 2 6 -1
v 2 8 -1
v 2 10 -1
v 3 7 -1
v 3 9 -1
v 4 0 -1
v 4 7 -1
v 4 9 -1
v 4 10 -1
v 5 6 -1
v 5 8 -1
v 6 0 -1
v 6 6 -1
v 6 8 -1
v 6 10 -1
v -6 0 1
v -4 0 1
v -2 0 1
v 0 0 1
v 2 0 1
v 4 0 1
v 6 0 1
v -6 0 -1
v -4 0 -1
v -2 0 -1
v 0 0 -1
v 2 0 -1
v 4 0 -1
v 6 0 -1
v -6 10 1
v -4 10 1
v -2 10 1
v 0 10 1
v 2 10 1
v 4 10 1
v 6 10 1
v -6 10 -1
v -4 10 -1
v -2 10 -1
v 0 10 -1
v 2 10 -1
v 4 10 -1
v 6 10 -1

# faces
f 3/3/1 2/3/1 1/3/1
f 4/3/1 2/3/1 3/3/1
f 5/2/2 6/2/2 7/2/2
f 7/2/2 6/2/2 8/2/2
f 7/1/2 8/1/2 9/1/2
f 9/1/2 8/1/2 10/1/2
f 9/2/2 10/2/2 11/2/2
f 11/2/2 10/2/2 12/2/2
f 15/3/3 14/3/3 13/3/3
f 16/3/3 14/3/3 15/3/3
f 17/3/3 15/3/3 13/3/3
f 18/1/3 16/1/3 15/1/3
f 18/3/3 15/3/3 17/3/3
f 19/3/3 14/3/3 16/3/3
f 19/1/3 16/1/3 18/1/3
f 20/3/3 14/3/3 19/3/3
f 21/2/3 18/2/3 17/2/3
f 21/2/3 19/2/3 18/2/3
f 21/2/3 20/2/3 19/2/3
f 22/2/3 20/2/3 21/2/3
f 23/2/3 21/2/3 17/2/3
f 24/1/3 22/1/3 21/1/3
f 24/2/3 21/2/3 23/2/3
f 25/2/3 20/2/3 22/2/3
f 25/1/3 22/1/3 24/1/3
f 26/2/3 20/2/3 25/2/3
f 27/3/3 24/3/3 23/3/3
f 27/3/3 25/3/3 24/3/3
f 27/3/3 26/3/3 25/3/3
f 28/3/3 26/3/3 27/3/3
f 29/3/3 27/3/3 23/3/3
f 30/1/3 28/1/3 27/1/3
f 30/3/3 27/3/3 29/3/3
f 31/3/3 26/3/3 28/3/3
f 31/1/3 28/1/3 30/1/3
f 32/3/3 26/3/3 31/3/3
f 33/2/3 30/2/3 29/2/3
f 33/2/3 31/2/3 30/2/3
f 33/2/3 32/2/3 31/2/3
f 34/2/3 32/2/3 33/2/3
f 35/2/3 33/2/3 29/2/3
f 36/1/3 34/1/3 33/1/3
f 36/2/3 33/2/3 35/2/3
f 37/2/3 32/2/3 34/2/3
f 37/1/3 34/1/3 36/1/3
f 38/2/3 32/2/3 37/2/3
f 39/3/3 36/3/3 35/3/3
f 39/3/3 37/3/3 36/3/3
f 39/3/3 38/3/3 37/3/3
f 40/3/3 38/3/3 39/3/3
f 41/3/3 39/3/3 35/3/3
f 42/1/3 40/1/3 39/1/3
f 42/3/3 39/3/3 41/3/3
f 43/3/3 38/3/3 40/3/3
f 43/1/3 40/1/3 42/1/3
f 44/3/3 38/3/3 43/3/3
f 45/2/3 42/2/3 41/2/3
f 45/2/3 43/2/3 42/2/3
f 45/2/3 44/2/3 43/2/3
f 46/2/3 44/2/3 45/2/3
f 47/2/3 45/2/3 41/2/3
f 48/1/3 46/1/3 45/1/3
f 48/2/3 45/2/3 47/2/3
f 49/2/3 44/2/3 46/2/3
f 49/1/3 46/1/3 48/1/3
f 50/2/3 44/2/3 49/2/3
f 51/3/4 52/3/4 53/3/4
f 53/3/4 52/3/4 54/3/4
f 51/3/4 53/3/4 55/3/4
f 53/1/4 54/1/4 56/1/4
f 55/3/4 53/3/4 56/3/4
f 54/3/4 52/3/4 57/3/4
f 56/1/4 54/1/4 57/1/4
f 57/3/4 52/3/4 58/3/4
f 55/2/4 56/2/4 59/2/4
f 56/2/4 57/2/4 59/2/4
f 57/2/4 58/2/4 59/2/4
f 59/2/4 58/2/4 60/2/4
f 55/2/4 59/2/4 61/2/4
f 59/1/4 60/1/4 62/1/4
f 61/2/4 59/2/4 62/2/4
f 60/2/4 58/2/4 63/2/4
f 62/1/4 60/1/4 63/1/4
f 63/2/4 58/2/4 64/2/4
f 61/3/4 62/3/4 65/3/4
f 62/3/4 63/3/4 65/3/4
f 63/3/4 64/3/4 65/3/4
f 65/3/4 64/3/4 66/3/4
f 61/3/4 65/3/4 67/3/4
f 65/1/4 66/1/4 68/1/4
f 67/3/4 65/3/4 68/3/4
f 66/3/4 64/3/4 69/3/4
f 68/1/4 66/1/4 69/1/4
f 69/3/4 64/3/4 70/3/4
f 67/2/4 68/2/4 71/2/4
f 68/2/4 69/2/4 71/2/4
f 69/2/4 70/2/4 71/2/4
f 71/2/4 70/2/4 72/2/4
f 67/2/4 71/2/4 73/2/4
f 71/1/4 72/1/4 74/1/4
f 73/2/4 71/2/4 74/2/4
f 72/2/4 70/2/4 75/2/4
f 74/1/4 72/1/4 75/1/4
f 75/2/4 70/2/4 76/2/4
f 73/3/4 74/3/4 77/3/4
f 74/3/4 75/3/4 77/3/4
f 75/3/4 76/3/4 77/3/4
f 77/3/4 76/3/4 78/3/4
f 73/3/4 77/3/4 79/3/4
f 77/1/4 78/1/4 80/1/4
f 79/3/4 77/3/4 80/3/4
f 78/3/4 76/3/4 81/3/4
f 80/1/4 78/1/4 81/1/4
f 81/3/4 76/3/4 82/3/4
f 79/2/4 80/2/4 83/2/4
f 80/2/4 81/2/4 83/2/4
f 81/2/4 82/2/4 83/2/4
f 83/2/4 82/2/4 84/2/4
f 79/2/4 83/2/4 85/2/4
f 83/1/4 84/1/4 86/1/4
f 85/2/4 83/2/4 86/2/4
f 84/2/4 82/2/4 87/2/4
f 86/1/4 84/1/4 87/1/4
f 87/2/4 82/2/4 88/2/4
f 96/3/5 90/3/5 89/3/5
f 97/2/5 91/2/5 90/2/5
f 97/3/5 90/3/5 96/3/5
f 98/3/5 92/3/5 91/3/5
f 98/2/5 91/2/5 97/2/5
f 99/2/5 93/2/5 92/2/5
f 99/3/5 92/3/5 98/3/5
f 100/3/5 94/3/5 93/3/5
f 100/2/5 93/2/5 99/2/5
f 101/2/5 95/2/5 94/2/5
f 101/3/5 94/3/5 100/3/5
f 102/2/5 95/2/5 101/2/5
f 103/3/6 104/3/6 110/3/6
f 104/2/6 105/2/6 111/2/6
f 110/3/6 104/3/6 111/3/6
f 105/3/6 106/3/6 112/3/6
f 111/2/6 105/2/6 112/2/6
f 106/2/6 107/2/6 113/2/6
f 112/3/6 106/3/6 113/3/6
f 107/3/6 108/3/6 114/3/6
f 113/2/6 107/2/6 114/2/6
f 108/2/6 109/2/6 115/2/6
f 114/3/6 108/3/6 115/3/6
f 115/2/6 109/2/6 116/2/6
